<?xml version="1.0" encoding="UTF-8" standalone="no"?>
<!-- Created with Inkscape (http://www.inkscape.org/) -->

<svg
   version="1.1"
   id="svg2"
   xml:space="preserve"
   width="1011.3467"
   height="742.50665"
   viewBox="0 0 1011.3467 742.50665"
   sodipodi:docname="logo.eps"
   xmlns:inkscape="http://www.inkscape.org/namespaces/inkscape"
   xmlns:sodipodi="http://sodipodi.sourceforge.net/DTD/sodipodi-0.dtd"
   xmlns="http://www.w3.org/2000/svg"
   xmlns:svg="http://www.w3.org/2000/svg"><defs
     id="defs6" /><sodipodi:namedview
     id="namedview4"
     pagecolor="#ffffff"
     bordercolor="#666666"
     borderopacity="1.0"
     inkscape:pageshadow="2"
     inkscape:pageopacity="0.0"
     inkscape:pagecheckerboard="0" /><g
     id="g8"
     inkscape:groupmode="layer"
     inkscape:label="ink_ext_XXXXXX"
     transform="matrix(1.3333333,0,0,-1.3333333,0,742.50667)"><g
       id="g10"
       transform="scale(0.1)"><path
         d="m 2420.85,2725.48 c 103,68.64 196.61,121.4 279.23,187.84 287.49,231.18 572.82,465.12 855.58,702.08 138.23,115.85 283.34,127.68 385.33,19.31 99.04,-105.25 99.96,-265.6 -31.11,-371.04 -422.67,-340.01 -855.09,-667.92 -1283.99,-1000.17 -11.67,-9.05 -25.8,-15.22 -39.34,-21.53 -175.48,-81.83 -359.66,-160.99 -537.94,-31.83 -177.78,128.8 -193.61,326.42 -161.79,528.04 130.36,825.92 460.73,1564.28 984.69,2214.31 86.53,107.35 193.37,202.63 304.5,285.06 360.94,267.7 734.19,237.14 1048.37,-86.36 320.57,-330.1 487.03,-749.27 650.43,-1168.25 71.1,-182.32 135.91,-367.09 203.57,-550.75 13.95,1.64 27.9,3.27 41.85,4.91 5.11,50.07 14.37,100.11 14.61,150.21 1.12,244.52 -5.13,489.19 1.06,733.55 4.52,178.43 114.04,275.15 275.67,258.37 135.68,-14.09 214,-99.01 212.93,-227.74 -4.84,-578.53 -7.07,-1157.52 -34.23,-1735.21 -12.49,-265.66 -143.06,-394.43 -318.93,-406.11 -170.9,-11.35 -281.64,85.8 -339.02,223.23 -147.64,353.62 -269.88,717.84 -417.22,1071.59 -152.97,367.28 -299,740.97 -492.7,1086.86 -230.17,411 -429.65,420.62 -744.23,65.7 -387.51,-437.18 -616.57,-962.67 -793.37,-1512.58 -34.98,-108.8 -56.84,-221.92 -82.16,-333.64 -3.72,-16.42 7.07,-36.11 18.21,-85.85"
         style="fill:#3871c1;fill-opacity:1;fill-rule:nonzero;stroke:none"
         id="path12" /><path
         d="m 5711.38,5239.5 c -1.75,-187.83 -148.4,-330.52 -334.32,-325.25 -181.72,5.14 -314.16,143.48 -314.22,328.19 -0.06,189.29 145.24,332.07 331.96,326.19 181.5,-5.7 318.26,-147.89 316.58,-329.13"
         style="fill:#3871c1;fill-opacity:1;fill-rule:nonzero;stroke:none"
         id="path14" /><path
         d="M 743.172,636.461 H 407.266 L 472.09,771.988 H 678.348 Z M 401.375,1396.66 h 282.859 c 54.985,7.83 94.297,-21.64 117.864,-88.4 98.164,-231.85 190.515,-424.291 276.982,-577.522 31.4,-51.097 72.65,-82.508 123.75,-94.277 39.23,-3.973 58.94,-27.543 58.94,-70.731 -35.37,-145.39 -102.21,-223.929 -200.38,-235.718 -58.92,0 -111.956,43.187 -159.109,129.648 L 536.91,1166.83 c -31.492,54.98 -76.609,96.23 -135.535,123.76 -35.359,15.65 -53.035,35.36 -53.035,58.92 0,31.41 17.676,47.15 53.035,47.15 z M 542.813,1037.18 366.016,689.488 c -27.532,-55.058 -41.25,-94.289 -41.25,-117.859 0,-27.539 21.543,-60.949 64.824,-100.18 43.183,-35.359 64.82,-64.828 64.82,-88.398 0,-35.36 -23.57,-53.039 -70.719,-53.039 h -58.925 c -47.153,3.867 -80.578,5.886 -100.188,5.886 h -76.609 c -35.364,-3.949 -62.8909,-5.886 -82.5002,-5.886 -43.2813,0 -64.824269,15.656 -64.824269,47.148 -3.867191,19.61 9.753869,43.18 41.249969,70.711 62.8005,47.149 108.0035,98.16 135.5355,153.231 l 294.66,571.628 70.723,-135.55"
         style="fill:#231f20;fill-opacity:1;fill-rule:nonzero;stroke:none"
         id="path16" /><path
         d="m 1344.27,760.211 v 306.439 c 0,62.8 -21.64,111.97 -64.83,147.33 -23.56,19.61 -35.35,37.29 -35.35,53.03 0,19.61 25.5,41.25 76.61,64.83 3.87,3.87 7.82,5.9 11.78,5.9 l 11.79,5.89 11.78,5.88 c 3.87,0 17.69,7.84 41.25,23.58 39.23,27.44 72.66,41.25 100.19,41.25 62.8,-3.96 94.29,-53.04 94.29,-147.33 V 695.379 c 0,-70.711 19.61,-121.809 58.93,-153.219 15.66,-11.789 23.58,-23.558 23.58,-35.351 -35.37,-117.86 -96.32,-176.797 -182.69,-176.797 -94.3,3.867 -145.4,74.578 -153.22,212.148 0,23.57 1.93,60.871 5.89,111.969 v 106.082"
         style="fill:#231f20;fill-opacity:1;fill-rule:nonzero;stroke:none"
         id="path18" /><path
         d="m 2234.13,330.012 c -78.63,0 -115.93,13.718 -111.97,41.25 -3.96,31.398 25.5,49.078 88.39,53.039 98.16,31.41 147.33,102.117 147.33,212.16 0,109.937 -43.27,165 -129.65,165 -11.78,0 -25.6,-2.02 -41.25,-5.891 -15.74,-3.968 -27.53,-5.902 -35.35,-5.902 -23.58,3.871 -35.36,17.691 -35.36,41.262 -3.97,19.609 23.57,62.789 82.5,129.648 7.83,7.82 17.68,19.613 29.46,35.352 31.41,43.18 60.87,62.8 88.4,58.94 176.8,-39.32 273.02,-155.249 288.77,-347.702 -15.75,-243.637 -139.5,-369.34 -371.27,-377.156 z m -394.83,70.707 v 388.949 c 0,35.363 -17.69,62.801 -53.05,82.512 -35.35,19.609 -53.04,43.179 -53.04,70.711 0,19.621 23.58,41.25 70.72,64.829 31.4,19.62 53.04,31.39 64.83,35.36 62.79,43.18 102.12,60.86 117.86,53.04 62.79,-7.92 96.22,-64.83 100.18,-170.901 V 353.59 c 0,-54.969 17.68,-96.219 53.04,-123.762 15.66,-11.789 23.57,-23.578 23.57,-35.359 C 2131.92,68.7813 2071.05,3.96094 1980.72,0 c -94.29,11.7891 -143.46,86.4609 -147.32,223.941 0,31.489 1.93,66.84 5.9,106.071 v 70.707"
         style="fill:#231f20;fill-opacity:1;fill-rule:nonzero;stroke:none"
         id="path20" /><path
         d="M 3483.46,860.391 V 642.352 c 0,-43.293 15.66,-74.684 47.14,-94.293 23.58,-11.789 35.36,-27.528 35.36,-47.149 -35.36,-113.992 -94.28,-170.898 -176.79,-170.898 -98.24,0 -149.35,68.687 -153.21,206.258 v 288.761 c 7.82,54.969 -27.54,80.481 -106.09,76.61 -39.32,0 -58.92,13.718 -58.92,41.25 23.57,70.729 90.33,111.979 200.36,123.759 137.48,-3.96 208.19,-72.74 212.15,-206.259 z M 3023.8,1267.01 V 400.719 c 7.83,-51.098 -37.39,-74.578 -135.54,-70.707 -86.46,-3.871 -127.71,13.718 -123.76,53.039 0,47.148 1.93,121.73 5.9,223.929 3.87,58.938 5.89,96.231 5.89,111.981 v 347.689 c 0,62.8 -21.64,111.97 -64.83,147.33 -23.57,19.61 -35.35,37.29 -35.35,53.03 -11.79,23.58 21.54,49.09 100.18,76.62 l 11.78,5.88 c 3.87,0 17.68,7.84 41.25,23.58 39.23,27.44 72.66,41.25 100.19,41.25 62.8,0 94.29,-49.17 94.29,-147.33"
         style="fill:#231f20;fill-opacity:1;fill-rule:nonzero;stroke:none"
         id="path22" /><path
         d="M 4296.71,848.609 V 618.77 c 0,-31.481 15.66,-56.989 47.14,-76.61 23.57,-11.789 35.36,-23.558 35.36,-35.351 -31.49,-117.86 -94.29,-176.797 -188.57,-176.797 -94.3,0 -141.44,76.609 -141.44,229.84 v 259.289 c -3.96,82.5 -35.36,125.687 -94.29,129.648 -47.14,0 -90.42,-37.391 -129.65,-111.969 -27.53,-51.109 -51.1,-76.609 -70.71,-76.609 -23.58,0 -51.1,21.539 -82.5,64.82 -27.54,35.36 -39.33,62.797 -35.36,82.5 43.18,102.119 157.09,155.159 341.79,159.119 212.16,0 318.23,-72.74 318.23,-218.041 z m -341.8,-106.078 c 31.4,0 47.14,-13.82 47.14,-41.25 0,-15.75 -17.67,-31.492 -53.03,-47.152 -58.94,-23.57 -88.4,-57 -88.4,-100.18 0,-55.058 33.33,-82.5 100.18,-82.5 35.37,0 53.04,-11.789 53.04,-35.359 -23.57,-62.891 -98.25,-98.262 -223.93,-106.078 -98.25,11.789 -157.19,66.758 -176.8,165.008 23.58,137.468 137.48,219.968 341.8,247.511"
         style="fill:#231f20;fill-opacity:1;fill-rule:nonzero;stroke:none"
         id="path24" /><path
         d="m 5687.48,330.012 c -15.75,0 -41.26,1.937 -76.61,5.886 -15.75,3.872 -29.47,5.903 -41.26,5.903 -7.91,0 -17.67,1.929 -29.46,5.89 -15.74,3.86 -31.49,5.899 -47.14,5.899 -74.68,3.859 -108.1,19.609 -100.18,47.129 0,23.582 17.67,41.261 53.03,53.051 70.72,23.57 129.65,68.691 176.8,135.539 43.18,62.8 98.15,94.293 165,94.293 70.72,0 106.07,-33.422 106.07,-100.184 -19.69,-161.137 -88.39,-245.59 -206.25,-253.406 z m -748.42,359.476 v 312.342 c 0,90.33 -29.47,147.32 -88.4,170.9 -31.5,11.78 -47.15,29.46 -47.15,53.03 -3.96,23.58 25.51,49.09 88.4,76.62 11.78,3.86 33.34,15.65 64.82,35.36 15.66,11.77 27.44,19.61 35.36,23.56 54.97,35.36 96.22,53.04 123.76,53.04 78.54,-3.96 115.83,-70.71 111.97,-200.36 0,-31.5 -2.03,-82.5 -5.89,-153.23 -3.97,-90.422 -5.9,-165 -5.9,-223.93 -3.96,-239.691 19.62,-359.48 70.72,-359.48 43.18,-27.531 62.79,-49.172 58.93,-64.828 3.86,-39.313 -17.68,-56.992 -64.83,-53.043 -51.1,-3.949 -117.86,-9.848 -200.36,-17.668 -23.57,0 -55.07,-2.031 -94.29,-5.903 -35.36,-3.949 -72.74,-5.886 -111.97,-5.886 -55.07,0 -82.5,27.437 -82.5,82.5 0,31.406 17.68,56.906 53.04,76.609 62.79,31.41 94.29,98.168 94.29,200.367"
         style="fill:#231f20;fill-opacity:1;fill-rule:nonzero;stroke:none"
         id="path26" /><path
         d="M 6571.45,848.609 V 618.77 c 0,-31.481 15.65,-56.989 47.14,-76.61 23.57,-11.789 35.36,-23.558 35.36,-35.351 -31.5,-117.86 -94.29,-176.797 -188.58,-176.797 -94.29,0 -141.43,76.609 -141.43,229.84 v 259.289 c -3.97,82.5 -35.36,125.687 -94.3,129.648 -47.14,0 -90.42,-37.391 -129.65,-111.969 -27.53,-51.109 -51.1,-76.609 -70.71,-76.609 -23.57,0 -51.1,21.539 -82.5,64.82 -27.54,35.36 -39.33,62.797 -35.36,82.5 43.18,102.119 157.09,155.159 341.8,159.119 212.15,0 318.23,-72.74 318.23,-218.041 z M 6229.64,742.531 c 31.41,0 47.15,-13.82 47.15,-41.25 0,-15.75 -17.68,-31.492 -53.04,-47.152 -58.93,-23.57 -88.4,-57 -88.4,-100.18 0,-55.058 33.33,-82.5 100.19,-82.5 35.36,0 53.04,-11.789 53.04,-35.359 -23.58,-62.891 -98.25,-98.262 -223.94,-106.078 -98.25,11.789 -157.19,66.758 -176.8,165.008 23.58,137.468 137.49,219.968 341.8,247.511"
         style="fill:#231f20;fill-opacity:1;fill-rule:nonzero;stroke:none"
         id="path28" /><path
         d="m 6813.06,565.73 v 500.92 c 0,62.8 -23.57,111.97 -70.71,147.33 -23.58,19.61 -35.36,37.29 -35.36,53.03 0,19.61 23.57,39.23 70.71,58.94 19.62,7.82 31.4,13.72 35.36,17.68 l 11.79,5.88 c 3.86,0 17.67,7.84 41.25,23.58 39.23,27.44 72.65,41.25 100.18,41.25 70.72,7.83 102.12,-39.32 94.29,-141.43 V 506.809 c -3.96,-47.149 25.51,-68.789 88.4,-64.829 125.68,7.829 188.57,78.551 188.57,212.149 0,113.91 -55.06,188.582 -165,223.941 -47.15,19.621 -70.72,39.231 -70.72,58.93 11.79,66.76 78.54,106.08 200.37,117.87 176.79,-11.79 271.08,-117.87 282.87,-318.241 -19.71,-247.508 -157.19,-383.039 -412.52,-406.617 -51.1,0 -110.04,1.937 -176.79,5.886 h -82.5 c -23.58,0 -55.07,-2.019 -94.29,-5.886 h -53.05 c -43.27,0 -64.82,15.656 -64.82,47.148 0,23.559 15.65,45.121 47.15,64.82 47.14,31.399 68.69,72.649 64.82,123.75"
         style="fill:#231f20;fill-opacity:1;fill-rule:nonzero;stroke:none"
         id="path30" /></g></g></svg>
